
        <svg xmlns="http://www.w3.org/2000/svg" xmlns:xlink="http://www.w3.org/1999/xlink" version="1.1" width="3162.6016260162605" 
        height="2056.910569105691" viewBox="0 0 3162.6016260162605 2056.910569105691">
			
			<g transform="scale(8.130081300813009) translate(10, 10)">
				<defs id="SvgjsDefs3848"></defs><g id="SvgjsG3849" featureKey="rootContainer" transform="matrix(1,0,0,1,0,0)" fill="#233142"><rect y="0" height="1" width="1" opacity="0"></rect><rect y="228" width="369" height="5"></rect></g><g id="SvgjsG3850" featureKey="symbolFeature-0" transform="matrix(1.3889660112794144,0,0,1.3889660112794144,-6.944322726473137,48.17855152140694)" fill="#36506c"><symbol xmlns="http://www.w3.org/2000/svg" viewBox="-14.821 -32.984 29.644 65.967"><g><path style="" d="M3.372,9.536h-6.744    c-4.372,0-7.95-3.577-7.95-7.95v-11.902c0-2.108,1.725-3.832,3.832-3.832h0.418v-11.503c0-2.108,1.725-3.832,3.832-3.832h6.478    c2.108,0,3.832,1.725,3.832,3.832v11.503H7.49c2.108,0,3.832,1.725,3.832,3.832V1.586C11.322,5.959,7.745,9.536,3.372,9.536z" fill="#36506c" stroke="#36506c" stroke-width="7" stroke-miterlimit="3"></path><path style="" d="M0.75,14.209h-1.5    c-3.365,0-6.118,2.753-6.118,6.118v3.038c0,3.365,2.753,6.118,6.118,6.118h1.5c3.365,0,6.118-2.753,6.118-6.118v-3.038    C6.868,16.962,4.115,14.209,0.75,14.209z" fill="#36506c" stroke="#36506c" stroke-width="7" stroke-miterlimit="3"></path></g><g><g><path d="M-3.238-28.484c-1.562,0-2.832,1.271-2.832,2.832v12.503h-1.418c-1.562,0-2.832,1.271-2.832,2.832V1.586     c0,3.832,3.118,6.95,6.95,6.95h6.744c3.832,0,6.95-3.118,6.95-6.95v-11.902c0-1.562-1.271-2.832-2.832-2.832H6.072v-12.503     c0-1.562-1.271-2.832-2.832-2.832H-3.238z"></path><path d="M3.373,7.536c3.281,0,5.95-2.669,5.95-5.95v-11.902c0-1.01-0.822-1.833-1.833-1.833H7.072h-2v-2v-11.503     c0-1.01-0.822-1.833-1.833-1.833h-6.478c-1.01,0-1.833,0.822-1.833,1.833v11.503v2h-2h-0.418c-1.01,0-1.833,0.822-1.833,1.833     V1.586c0,3.281,2.669,5.95,5.95,5.95H3.373 M3.373,9.536h-6.744c-4.373,0-7.95-3.578-7.95-7.95v-11.902     c0-2.108,1.725-3.833,3.833-3.833h0.418v-11.503c0-2.108,1.725-3.833,3.833-3.833h6.478c2.108,0,3.833,1.725,3.833,3.833v11.503     H7.49c2.108,0,3.833,1.725,3.833,3.833V1.586C11.322,5.958,7.745,9.536,3.373,9.536L3.373,9.536z"></path></g><g><path d="M-0.749,15.209c-2.822,0-5.118,2.296-5.118,5.118v3.038c0,2.822,2.296,5.118,5.118,5.118h1.5     c2.822,0,5.118-2.296,5.118-5.118v-3.038c0-2.822-2.296-5.118-5.118-5.118H-0.749z"></path><path d="M0.75,27.483c2.271,0,4.118-1.847,4.118-4.118v-3.038c0-2.271-1.847-4.118-4.118-4.118h-1.5     c-2.271,0-4.118,1.847-4.118,4.118v3.038c0,2.271,1.847,4.118,4.118,4.118H0.75 M0.75,29.483h-1.5     c-3.365,0-6.118-2.753-6.118-6.118v-3.038c0-3.365,2.753-6.118,6.118-6.118h1.5c3.365,0,6.118,2.753,6.118,6.118v3.038     C6.868,26.73,4.115,29.483,0.75,29.483L0.75,29.483z"></path></g></g></symbol><symbol xmlns="http://www.w3.org/2000/svg" viewBox="-13.754 -32.379 27.509 60.818"><g><path style="" d="M6.112,10.396H-6.112    c-2.003,0-3.643-1.639-3.643-3.643V-8.431c0-1.816,1.486-3.302,3.302-3.302h0.36v-13.344c0-1.816,1.486-3.302,3.302-3.302H2.79    c1.816,0,3.302,1.486,3.302,3.302v13.344h0.36c1.816,0,3.302,1.486,3.302,3.302V6.753C9.755,8.757,8.115,10.396,6.112,10.396z" fill="#36506c" stroke="#36506c" stroke-width="8" stroke-miterlimit="3"></path><g><path style="" d="M-0.646,19.28c-0.689,0-1.271,0.582-1.271,1.271v2.617c0,0.689,0.582,1.271,1.271,1.271h1.292     c0.689,0,1.271-0.582,1.271-1.271v-2.617c0-0.689-0.582-1.271-1.271-1.271H-0.646z" fill="#36506c"></path><path style="" d="M0.646,28.439h-1.292c-2.899,0-5.271-2.372-5.271-5.271v-2.617c0-2.899,2.372-5.271,5.271-5.271     h1.292c2.899,0,5.271,2.372,5.271,5.271v2.617C5.917,26.068,3.545,28.439,0.646,28.439L0.646,28.439z" fill="#36506c"></path></g></g><g><path style="" d="M6.112,10.396H-6.112c-2.003,0-3.643-1.639-3.643-3.643V-8.431    c0-1.816,1.486-3.302,3.302-3.302h0.36v-13.344c0-1.816,1.486-3.302,3.302-3.302H2.79c1.816,0,3.302,1.486,3.302,3.302v13.344    h0.36c1.816,0,3.302,1.486,3.302,3.302V6.753C9.755,8.757,8.115,10.396,6.112,10.396z" stroke="#36506c" stroke-miterlimit="10"></path><g><path d="M-0.646,15.78c-2.631,0-4.771,2.14-4.771,4.771v2.617c0,2.631,2.14,4.771,4.771,4.771h1.292     c2.631,0,4.771-2.14,4.771-4.771v-2.617c0-2.631-2.14-4.771-4.771-4.771H-0.646z"></path><path style="" d="M0.646,27.439c2.355,0,4.271-1.916,4.271-4.271v-2.617c0-2.355-1.916-4.271-4.271-4.271h-1.292     c-2.355,0-4.271,1.916-4.271,4.271v2.617c0,2.355,1.916,4.271,4.271,4.271H0.646 M0.646,28.439h-1.292     c-2.899,0-5.271-2.372-5.271-5.271v-2.617c0-2.899,2.372-5.271,5.271-5.271h1.292c2.899,0,5.271,2.372,5.271,5.271v2.617     C5.917,26.068,3.545,28.439,0.646,28.439L0.646,28.439z" fill="#36506c"></path></g></g></symbol><symbol xmlns="http://www.w3.org/2000/svg" viewBox="-14.321 -32.483 28.644 64.967"><g><path style="" d="M3.373,9.536h-6.744    c-4.372,0-7.95-3.577-7.95-7.95v-11.902c0-2.108,1.725-3.832,3.832-3.832h0.418v-11.503c0-2.108,1.725-3.832,3.832-3.832h6.478    c2.108,0,3.832,1.725,3.832,3.832v11.503H7.49c2.108,0,3.832,1.725,3.832,3.832V1.586C11.323,5.959,7.745,9.536,3.373,9.536z" fill="#36506c" stroke="#36506c" stroke-width="6" stroke-miterlimit="3"></path><path style="" d="M0.75,14.209h-1.5    c-3.365,0-6.118,2.753-6.118,6.118v3.038c0,3.365,2.753,6.118,6.118,6.118h1.5c3.365,0,6.118-2.753,6.118-6.118v-3.038    C6.868,16.962,4.115,14.209,0.75,14.209z" fill="#36506c" stroke="#36506c" stroke-width="6" stroke-miterlimit="3"></path></g><g><g><path d="M-3.238-27.483c-1.01,0-1.832,0.822-1.832,1.832v13.503h-2.418c-1.01,0-1.832,0.822-1.832,1.832V1.586     c0,3.281,2.669,5.95,5.95,5.95h6.744c3.281,0,5.95-2.669,5.95-5.95v-11.902c0-1.01-0.822-1.832-1.832-1.832H5.072v-13.503     c0-1.01-0.822-1.832-1.832-1.832H-3.238z"></path><path d="M3.373,5.536c2.178,0,3.95-1.772,3.95-3.95v-11.734H7.072h-4v-4v-11.335h-6.143v11.335v4h-4h-0.25V1.586     c0,2.178,1.772,3.95,3.95,3.95H3.373 M3.373,9.536h-6.744c-4.372,0-7.95-3.577-7.95-7.95v-11.902     c0-2.108,1.725-3.833,3.833-3.833h0.418v-11.503c0-2.108,1.725-3.833,3.833-3.833h6.478c2.108,0,3.833,1.725,3.833,3.833v11.503     H7.49c2.107,0,3.833,1.725,3.833,3.833V1.586C11.323,5.959,7.745,9.536,3.373,9.536L3.373,9.536z"></path></g><g><path d="M-0.674,16.973c-1.933,0-3.506,1.573-3.506,3.506v2.734c0,1.933,1.573,3.506,3.506,3.506h1.35     c1.933,0,3.506-1.573,3.506-3.506v-2.734c0-1.933-1.573-3.506-3.506-3.506H-0.674z"></path><path d="M0.675,24.719c0.816,0,1.506-0.689,1.506-1.506v-2.734c0-0.816-0.69-1.506-1.506-1.506h-1.35     c-0.816,0-1.506,0.689-1.506,1.506v2.734c0,0.816,0.689,1.506,1.506,1.506H0.675 M0.675,28.719h-1.35     c-3.028,0-5.506-2.478-5.506-5.506v-2.734c0-3.028,2.478-5.506,5.506-5.506h1.35c3.028,0,5.506,2.478,5.506,5.506v2.734     C6.182,26.242,3.704,28.719,0.675,28.719L0.675,28.719z"></path></g></g></symbol><symbol xmlns="http://www.w3.org/2000/svg" viewBox="-14.822 -32.984 29.644 65.967"><g><path style="" d="M3.372,9.536h-6.744    c-4.372,0-7.95-3.577-7.95-7.95v-11.902c0-2.108,1.725-3.832,3.832-3.832h0.418v-11.503c0-2.108,1.725-3.832,3.832-3.832h6.478    c2.108,0,3.832,1.725,3.832,3.832v11.503h0.418c2.108,0,3.832,1.725,3.832,3.832V1.586C11.322,5.959,7.745,9.536,3.372,9.536z" fill="#36506c" stroke="#36506c" stroke-width="7" stroke-miterlimit="3"></path><path style="" d="M0.75,14.209h-1.5    c-3.365,0-6.118,2.753-6.118,6.118v3.038c0,3.365,2.753,6.118,6.118,6.118h1.5c3.365,0,6.118-2.753,6.118-6.118v-3.038    C6.868,16.962,4.115,14.209,0.75,14.209z" fill="#36506c" stroke="#36506c" stroke-width="7" stroke-miterlimit="3"></path></g><g><g><path style="" d="M-3.239-27.484c-1.01,0-1.832,0.822-1.832,1.832v13.503h-2.418c-1.01,0-1.832,0.822-1.832,1.832     V1.586c0,3.281,2.669,5.95,5.95,5.95h6.744c3.281,0,5.95-2.669,5.95-5.95v-11.902c0-1.01-0.822-1.832-1.832-1.832H5.071v-13.503     c0-1.01-0.822-1.832-1.832-1.832H-3.239z" fill="#36506c"></path><path d="M3.372,5.536c2.178,0,3.95-1.772,3.95-3.95v-11.734h-0.25h-4v-4v-11.336h-6.143v11.336v4h-4h-0.25V1.586     c0,2.178,1.772,3.95,3.95,3.95H3.372 M3.372,9.536h-6.744c-4.372,0-7.95-3.578-7.95-7.95v-11.902     c0-2.108,1.725-3.833,3.833-3.833h0.418v-11.503c0-2.107,1.725-3.833,3.833-3.833h6.478c2.108,0,3.833,1.725,3.833,3.833v11.503     h0.418c2.108,0,3.833,1.725,3.833,3.833V1.586C11.322,5.958,7.745,9.536,3.372,9.536L3.372,9.536z"></path></g><g><path style="" d="M-0.75,16.209c-2.271,0-4.118,1.847-4.118,4.118v3.038c0,2.271,1.847,4.118,4.118,4.118h1.5     c2.271,0,4.118-1.847,4.118-4.118v-3.038c0-2.271-1.847-4.118-4.118-4.118H-0.75z" fill="#36506c"></path><path d="M0.75,25.483c1.148,0,2.118-0.97,2.118-2.118v-3.038c0-1.148-0.97-2.118-2.118-2.118h-1.5     c-1.148,0-2.118,0.97-2.118,2.118v3.038c0,1.148,0.97,2.118,2.118,2.118H0.75 M0.75,29.483h-1.5     c-3.365,0-6.118-2.753-6.118-6.118v-3.038c0-3.365,2.753-6.118,6.118-6.118h1.5c3.365,0,6.118,2.753,6.118,6.118v3.038     C6.868,26.73,4.115,29.483,0.75,29.483L0.75,29.483z"></path></g></g></symbol><symbol xmlns="http://www.w3.org/2000/svg" viewBox="-13.754 -32.378 27.509 60.818"><g><path style="" d="M6.112,10.396H-6.112    c-2.003,0-3.643-1.639-3.643-3.643V-8.43c0-1.816,1.486-3.302,3.302-3.302h0.36v-13.344c0-1.816,1.486-3.302,3.302-3.302h5.581    c1.816,0,3.302,1.486,3.302,3.302v13.344h0.36c1.816,0,3.302,1.486,3.302,3.302V6.754C9.755,8.757,8.116,10.396,6.112,10.396z" fill="#36506c" stroke="#36506c" stroke-width="8" stroke-miterlimit="3"></path><g><path style="" d="M-0.646,19.281c-0.689,0-1.271,0.582-1.271,1.271v2.617c0,0.689,0.582,1.271,1.271,1.271h1.292     c0.689,0,1.271-0.582,1.271-1.271v-2.617c0-0.689-0.582-1.271-1.271-1.271H-0.646z" fill="#36506c"></path><path style="" d="M0.646,28.44h-1.292c-2.899,0-5.271-2.372-5.271-5.271v-2.618c0-2.899,2.372-5.271,5.271-5.271     h1.292c2.899,0,5.271,2.372,5.271,5.271v2.618C5.917,26.068,3.545,28.44,0.646,28.44L0.646,28.44z" fill="#36506c"></path></g></g><g><path style="" d="M6.112,10.396H-6.112    c-2.003,0-3.643-1.639-3.643-3.643V-8.43c0-1.816,1.486-3.302,3.302-3.302h0.36v-13.344c0-1.816,1.486-3.302,3.302-3.302h5.581    c1.816,0,3.302,1.486,3.302,3.302v13.344h0.36c1.816,0,3.302,1.486,3.302,3.302V6.754C9.755,8.757,8.116,10.396,6.112,10.396z" fill="#36506c" stroke="#36506c" stroke-width="2" stroke-miterlimit="3"></path><g><path style="" d="M-0.646,16.281c-2.355,0-4.271,1.916-4.271,4.271v2.617c0,2.355,1.916,4.271,4.271,4.271h1.292     c2.355,0,4.271-1.916,4.271-4.271v-2.617c0-2.355-1.916-4.271-4.271-4.271H-0.646z" fill="#36506c"></path><path d="M0.646,26.44c1.804,0,3.271-1.467,3.271-3.271v-2.618c0-1.804-1.467-3.271-3.271-3.271h-1.292     c-1.804,0-3.271,1.467-3.271,3.271v2.618c0,1.803,1.467,3.271,3.271,3.271H0.646 M0.646,28.44h-1.292     c-2.899,0-5.271-2.372-5.271-5.271v-2.618c0-2.899,2.372-5.271,5.271-5.271h1.292c2.899,0,5.271,2.372,5.271,5.271v2.618     C5.917,26.068,3.545,28.44,0.646,28.44L0.646,28.44z"></path></g></g></symbol><g xmlns="http://www.w3.org/2000/svg" style="" display="none"><rect x="-417" y="-887.014" style="" width="1280" height="1310.409" display="inline" fill="#36506c"></rect></g><g xmlns="http://www.w3.org/2000/svg"><path d="M71.242,34.739c-4.448,0-8.054,3.606-8.054,8.054c0,4.448,3.606,8.054,8.054,8.054s8.054-3.606,8.054-8.054   C79.296,38.345,75.69,34.739,71.242,34.739z M71.242,48.718c-3.267,0-5.925-2.658-5.925-5.925c0-3.267,2.658-5.925,5.925-5.925   s5.925,2.658,5.925,5.925C77.167,46.061,74.509,48.718,71.242,48.718z"></path><path d="M29.261,34.739c-4.448,0-8.054,3.606-8.054,8.054c0,4.448,3.606,8.054,8.054,8.054c4.448,0,8.054-3.606,8.054-8.054   C37.315,38.345,33.709,34.739,29.261,34.739z M29.261,48.718c-3.267,0-5.925-2.658-5.925-5.925c0-3.267,2.658-5.925,5.925-5.925   s5.925,2.658,5.925,5.925C35.186,46.061,32.528,48.718,29.261,48.718z"></path><path d="M80.812,21.433c-8.759-8.23-20.2-12.543-32.213-12.181c-12.014,0.374-23.163,5.404-31.393,14.161   C8.975,32.172,4.648,43.615,5.022,55.631c0.316,10.142,3.914,19.612,10.404,27.384l0.239-0.2c0.095,0.253,0.207,0.503,0.354,0.744   c0.381,0.649,0.945,1.256,1.617,1.747c1.1,0.831,2.463,1.372,3.748,1.504v0.182c0,0.588,0.477,1.065,1.065,1.065   c0.379,0,0.696-0.209,0.884-0.507c0.104-0.165,0.18-0.349,0.18-0.558v-0.002h0.003v-2.278h-0.003V73.37   c0-0.588-0.477-1.065-1.065-1.065c-0.588,0-1.065,0.476-1.065,1.065v11.283c-0.84-0.128-1.74-0.498-2.478-1.056   c-0.453-0.331-0.816-0.716-1.06-1.131c-0.207-0.341-0.313-0.684-0.313-1.022V65.74c0-4.368,3.553-7.921,7.921-7.921h7.612   c1.688,0,3.3,0.543,4.649,1.536c-0.858,1.501-1.322,3.209-1.322,4.958v2.172v13.542c0,1.539,0.96,3.049,2.636,4.141   c1.034,0.671,2.224,1.099,3.345,1.215v0.19c0,0.005,0.003,0.008,0.003,0.013v5.182h2.129v-7.483h-0.003V71.95   c0-0.589-0.477-1.065-1.065-1.065s-1.065,0.476-1.065,1.065v11.282c-0.726-0.112-1.506-0.408-2.184-0.848   c-1.044-0.681-1.668-1.562-1.668-2.356V64.313c0-1.877,0.673-3.695,1.894-5.121c1.519-1.773,3.716-2.79,6.027-2.79h7.612   c2.624,0,5.077,1.306,6.562,3.495c0.889,1.306,1.359,2.832,1.359,4.416v15.715c0,1.199-1.281,2.286-2.54,2.829   c-0.447,0.187-0.888,0.292-1.311,0.357V71.95c0-0.589-0.477-1.065-1.065-1.065c-0.588,0-1.065,0.476-1.065,1.065v11.336h-0.003   v7.483h2.129v-5.182c0-0.005,0.003-0.008,0.003-0.013v-0.19c0.689-0.072,1.417-0.263,2.143-0.567   c2.332-1.004,3.838-2.884,3.838-4.789V66.485v-2.172c0-1.753-0.479-3.44-1.342-4.944c1.351-1.001,2.971-1.55,4.669-1.55h7.613   c4.368,0,7.921,3.553,7.921,7.921v15.704c0,0.337-0.106,0.681-0.321,1.036c-0.236,0.4-0.599,0.787-1.066,1.128   c-0.727,0.549-1.625,0.918-2.464,1.045V73.37c0-0.588-0.477-1.065-1.065-1.065s-1.065,0.476-1.065,1.065v11.343h-0.003v2.278h1.065   h1.065v-0.18c1.286-0.131,2.648-0.672,3.737-1.494c0.685-0.5,1.249-1.108,1.624-1.744c0.196-0.321,0.342-0.651,0.445-0.987   c0.472-0.58,0.937-1.168,1.377-1.769c5.994-8.161,8.995-17.839,8.679-27.989C94.603,40.813,89.573,29.663,80.812,21.433z    M85.099,78.821V65.74c0-5.542-4.509-10.05-10.051-10.05h-7.613c-2.144,0-4.191,0.689-5.898,1.942   c-1.898-2.12-4.605-3.358-7.48-3.358h-7.612c-2.854,0-5.562,1.227-7.478,3.36c-1.709-1.255-3.755-1.944-5.9-1.944h-7.612   c-5.542,0-10.051,4.508-10.051,10.05v13.784c-5.132-6.977-7.981-15.202-8.253-23.959c-0.357-11.448,3.765-22.348,11.607-30.692   c7.84-8.344,18.462-13.135,29.908-13.491c11.443-0.359,22.344,3.764,30.689,11.602c8.346,7.841,13.138,18.463,13.495,29.911   C93.141,62.262,90.459,71.202,85.099,78.821z"></path><path d="M50.252,33.32c-4.448,0-8.054,3.606-8.054,8.054c0,4.448,3.606,8.054,8.054,8.054c4.448,0,8.054-3.606,8.054-8.054   C58.306,36.926,54.7,33.32,50.252,33.32z M50.252,47.299c-3.267,0-5.925-2.658-5.925-5.925c0-3.267,2.658-5.925,5.925-5.925   c3.267,0,5.925,2.658,5.925,5.925C56.177,44.641,53.519,47.299,50.252,47.299z"></path></g></g><g id="SvgjsG3851" featureKey="nameFeature-0" transform="matrix(4.6452702104043935,0,0,4.6452702104043935,147,-19.162152823085364)" fill="#233142"><path d="M0 33.6 l3.92 0 c0.2 2.2 0.68 2.8 1.44 2.8 c1.6 0 1.6 -1.68 1.6 -13.24 l0 -11.96 l-3.04 0 l0 -3.2 l7.04 0 l0 15.16 c0 12.8 0 17.24 -5.6 17.24 c-3.52 0 -4.88 -1.92 -5.36 -6.8 z M17.46 40 l0 -32 l6 0 c6 0 6 4.4 6 15.16 c0 12.4 0 16.84 -6 16.84 l-6 0 z M21.46 36 l2 0 c2.24 0 2.24 -1.68 2.24 -12.84 c0 -10 0 -11.96 -2.24 -11.96 l-2 0 l0 24.8 z M35.36 23.16 l0 -15.16 l4 0 l0 15.16 c0 11.56 0 13.24 2 13.24 s2 -1.68 2 -13.24 l0 -15.16 l4 0 l0 15.16 c0 12.8 0 17.24 -6 17.24 s-6 -4.44 -6 -17.24 z"></path></g><g id="SvgjsG3852" featureKey="sloganFeature-0" transform="matrix(2.1954806795551387,0,0,2.1954806795551387,140.0382142085865,173.14863100112885)" fill="#233142"><path d="M6.18 7.32 c1.82 0 3.76 0.7 3.76 2.76 c0 0.48 -0.32 0.7 -0.66 0.7 s-0.7 -0.24 -0.7 -0.7 c0 -0.16 -0.1 -1.46 -2.4 -1.46 c-1.82 0 -2.62 0.72 -2.62 2.44 l0 4.82 c0 1.74 0.98 2.28 2.62 2.28 c1.66 0 2.58 -0.68 2.58 -2.3 c0 -0.46 0.34 -0.68 0.66 -0.68 c0.34 0 0.66 0.22 0.66 0.68 c0 2.7 -1.5 3.6 -3.9 3.6 c-2.6 0 -3.92 -0.96 -3.92 -3.58 l0 -4.82 c0 -2.84 1.42 -3.74 3.92 -3.74 z M14.620000000000001 15.86 l0 -4.96 c0 -2.4 1.24 -3.68 3.64 -3.68 l0.52 0 c2.38 0 3.64 1.28 3.64 3.68 l0 4.96 c0 2.2 -1.46 3.64 -3.64 3.64 l-0.52 0 c-2.22 0 -3.64 -1.46 -3.64 -3.64 z M18.26 18.16 l0.52 0 c1.44 0 2.3 -0.9 2.3 -2.3 l0 -4.96 c0 -1.56 -0.76 -2.36 -2.3 -2.36 l-0.52 0 c-1.52 0 -2.36 0.82 -2.36 2.36 l0 4.96 c0 1.46 0.92 2.3 2.36 2.3 z M35.82 18.76 l0 -8.92 l-3.18 9 c-0.18 0.5 -0.84 0.62 -1.04 0 l-3.08 -9 l0 8.92 c0 0.42 -0.32 0.64 -0.66 0.64 s-0.68 -0.22 -0.68 -0.64 l0 -10.74 c0 -0.38 0.28 -0.66 0.68 -0.66 l0.64 0 c0.44 0 0.68 0.32 0.78 0.62 c0.96 2.86 1.84 5.4 2.82 8.28 l2.9 -8.34 c0.1 -0.28 0.28 -0.56 0.7 -0.56 l0.8 0 c0.58 0 0.66 0.32 0.66 0.64 l0 10.76 c0 0.42 -0.34 0.64 -0.68 0.64 s-0.66 -0.22 -0.66 -0.64 z  M50.8 18.76 l0 -8.92 l-3.18 9 c-0.18 0.5 -0.84 0.62 -1.04 0 l-3.08 -9 l0 8.92 c0 0.42 -0.32 0.64 -0.66 0.64 s-0.68 -0.22 -0.68 -0.64 l0 -10.74 c0 -0.38 0.28 -0.66 0.68 -0.66 l0.64 0 c0.44 0 0.68 0.32 0.78 0.62 c0.96 2.86 1.84 5.4 2.82 8.28 l2.9 -8.34 c0.1 -0.28 0.28 -0.56 0.7 -0.56 l0.8 0 c0.58 0 0.66 0.32 0.66 0.64 l0 10.76 c0 0.42 -0.34 0.64 -0.68 0.64 s-0.66 -0.22 -0.66 -0.64 z  M57.08 15.86 l0 -7.86 c0 -0.42 0.34 -0.64 0.66 -0.64 c0.34 0 0.66 0.22 0.66 0.64 l0 7.86 c0 1.44 0.98 2.3 2.34 2.3 l0.5 0 c1.4 0 2.36 -0.98 2.36 -2.3 l0 -7.86 c0 -0.42 0.32 -0.64 0.66 -0.64 c0.32 0 0.66 0.22 0.66 0.64 l0 7.86 c0 2.06 -1.46 3.64 -3.68 3.64 l-0.5 0 c-2.22 0 -3.66 -1.54 -3.66 -3.64 z M76.56 8 l0 10.76 c0 0.42 -0.32 0.64 -0.64 0.64 c-0.24 0 -0.56 -0.18 -0.7 -0.44 c-1.5 -2.94 -2.62 -5.2 -4.12 -8.16 l0 7.96 c0 0.42 -0.32 0.64 -0.66 0.64 c-0.32 0 -0.66 -0.22 -0.66 -0.64 l0 -10.76 c0 -0.7 1 -0.74 1.22 -0.32 l4.22 8.34 l0 -8.02 c0 -0.42 0.32 -0.64 0.66 -0.64 s0.68 0.22 0.68 0.64 z M81.66 18.78 l0 -10.78 c0 -0.42 0.32 -0.64 0.64 -0.64 s0.66 0.22 0.66 0.64 l0 10.78 c0 0.86 -1.3 0.86 -1.3 0 z M87.6 7.359999999999999 l6.04 0 c0.42 0 0.62 0.34 0.62 0.68 s-0.2 0.66 -0.62 0.66 l-2.28 0 l0 10.06 c0 0.42 -0.34 0.64 -0.68 0.64 s-0.66 -0.22 -0.66 -0.64 l0 -10.06 l-2.42 0 c-0.42 0 -0.62 -0.32 -0.62 -0.66 s0.2 -0.68 0.62 -0.68 z M104.19999999999999 8.3 l-2.48 5.14 l0 5.32 c0 0.44 -0.32 0.64 -0.64 0.64 c-0.34 0 -0.66 -0.22 -0.66 -0.64 l0 -5.32 l-2.54 -5.12 c-0.42 -0.88 0.8 -1.4 1.22 -0.56 l1.98 3.96 l1.9 -3.94 c0.44 -0.92 1.64 -0.34 1.22 0.52 z"></path></g>
			</g>
		</svg>
	